<svg width="56" height="56" viewBox="0 0 56 56" fill="none" xmlns="http://www.w3.org/2000/svg">
<circle cx="28" cy="28" r="28" fill="white"/>
<g clip-path="url(#clip0_106_216)">
<path d="M26.9199 37.64L31.3199 33.24V33.2L30.3999 32.28C30.3599 32.24 30.3599 32.24 30.3199 32.28L27.4799 35.12C27.4399 35.16 27.3999 35.12 27.3999 35.08L27.3999 20.48C27.3999 20.04 27.7599 19.68 28.1999 19.68H32.7999C32.8399 19.68 32.9199 19.64 32.9199 19.56V18.4C32.9199 18.36 32.8799 18.32 32.7999 18.32H27.7999C26.7999 18.32 25.9999 19.12 25.9999 20.12L25.9999 34.96C25.9999 35 25.9599 35.04 25.9199 35L23.2399 32.32C23.1999 32.28 23.1599 32.28 23.1199 32.32L22.2799 33.16C22.2399 33.2 22.2399 33.24 22.2799 33.28L26.6399 37.64C26.7199 37.68 26.8399 37.68 26.9199 37.64Z" fill="#244629"/>
</g>
<defs>
<clipPath id="clip0_106_216">
<rect width="20" height="11.2" fill="white" transform="matrix(0 1 -1 0 33.2002 18)"/>
</clipPath>
</defs>
</svg>
