<svg width="115" height="48" viewBox="0 0 115 48" fill="none" xmlns="http://www.w3.org/2000/svg">
<path d="M0 20.2383H5.94101C7.79179 20.2383 9.21689 19.7848 10.2163 18.878C11.2342 17.9711 11.7432 16.546 11.7432 14.6027C11.7432 13.2886 11.4656 12.2059 10.9104 11.3545C10.3736 10.4847 9.55928 9.96645 8.46732 9.79988V9.66108C9.50376 9.42047 10.2441 8.92076 10.6883 8.16194C11.1324 7.38461 11.3545 6.4037 11.3545 5.2192C11.3545 3.60902 10.9196 2.34124 10.0497 1.41585C9.17987 0.471949 7.84731 0 6.05205 0H0V20.2383ZM5.4413 3.27588C5.99653 3.27588 6.42221 3.42394 6.71833 3.72007C7.03297 3.99769 7.19028 4.46038 7.19028 5.10816V6.35743C7.19028 6.96819 7.05147 7.44939 6.77386 7.80104C6.51475 8.13418 6.09832 8.30075 5.52458 8.30075H4.33083V3.27588H5.4413ZM5.46906 11.4656C6.06131 11.4656 6.53326 11.6229 6.8849 11.9375C7.25506 12.2337 7.44014 12.7704 7.44014 13.5477V14.9636C7.44014 15.5558 7.29208 16.037 6.99595 16.4072C6.71833 16.7773 6.20012 16.9624 5.4413 16.9624H4.33083V11.4656H5.46906Z" fill="white"/>
<path d="M12.2017 20.2383H16.5603L16.9767 16.7403H20.6135L21.0577 20.2383H25.4163L21.8905 0H15.6997L12.2017 20.2383ZM17.4487 13.4644L18.2538 7.93985L18.6702 3.9144H18.92L19.3642 7.93985L20.1416 13.4644H17.4487Z" fill="white"/>
<path d="M35.8647 3.58126V0H24.5101V3.58126H28.0081V20.2383H32.3667V3.58126H35.8647Z" fill="white"/>
<path d="M34.9891 20.2383H39.3477L39.7641 16.7403H43.4009L43.8451 20.2383H48.2037L44.6779 0H38.4871L34.9891 20.2383ZM40.236 13.4644L41.0411 7.93985L41.4576 3.9144H41.7074L42.1516 7.93985L42.9289 13.4644H40.236Z" fill="white"/>
<path d="M58.5763 20.2938H62.9349V15.7687H65.1281L65.1559 12.0486H62.9349V7.49566H59.5202L58.8262 12.0486H56.1888V11.8265L60.9083 0H56.4942L51.275 12.9092V15.7687H58.5763V20.2938Z" fill="white"/>
<path d="M0 48H5.94101C7.79179 48 9.21689 47.5466 10.2163 46.6397C11.2342 45.7328 11.7432 44.3077 11.7432 42.3644C11.7432 41.0503 11.4656 39.9676 10.9104 39.1163C10.3736 38.2464 9.55928 37.7282 8.46732 37.5616V37.4228C9.50376 37.1822 10.2441 36.6825 10.6883 35.9237C11.1324 35.1463 11.3545 34.1654 11.3545 32.9809C11.3545 31.3707 10.9196 30.1029 10.0497 29.1776C9.17987 28.2337 7.84731 27.7617 6.05205 27.7617H0V48ZM5.4413 31.0376C5.99653 31.0376 6.42221 31.1857 6.71833 31.4818C7.03297 31.7594 7.19028 32.2221 7.19028 32.8699V34.1191C7.19028 34.7299 7.05147 35.2111 6.77386 35.5628C6.51475 35.8959 6.09832 36.0625 5.52458 36.0625H4.33083V31.0376H5.4413ZM5.46906 39.2273C6.06131 39.2273 6.53326 39.3846 6.8849 39.6992C7.25506 39.9954 7.44014 40.5321 7.44014 41.3094V42.7253C7.44014 43.3175 7.29208 43.7987 6.99595 44.1689C6.71833 44.539 6.20012 44.7241 5.4413 44.7241H4.33083V39.2273H5.46906Z" fill="white"/>
<path d="M13.2779 48H23.1611V44.4187H17.6365V39.4216H22.0228V35.9237H17.6365V31.343H22.9945V27.7617H13.2779V48Z" fill="white"/>
<path d="M35.5936 31.343V27.7617H24.239V31.343H27.737V48H32.0956V31.343H35.5936Z" fill="white"/>
<path d="M48.6817 31.343V27.7617H37.3271V31.343H40.8251V48H45.1837V31.343H48.6817Z" fill="white"/>
<path d="M50.265 48H60.1481V44.4187H54.6236V39.4216H59.0099V35.9237H54.6236V31.343H59.9816V27.7617H50.265V48Z" fill="white"/>
<path d="M61.7535 48H66.1121V40.4488H66.9172L69.277 48H73.9132L70.9427 39.5604C72.8675 38.8016 73.8299 36.9879 73.8299 34.1191C73.8299 31.9537 73.3117 30.3528 72.2752 29.3164C71.2573 28.2799 69.6841 27.7617 67.5557 27.7617H61.7535V48ZM67.528 31.2874C68.8235 31.2874 69.4713 32 69.4713 33.4251V34.7577C69.4713 35.4425 69.314 35.9884 68.9993 36.3956C68.7032 36.8028 68.2128 37.0064 67.528 37.0064H66.1121V31.2874H67.528Z" fill="white"/>
<path d="M77.7089 48H86.3706V44.4187H82.0675V27.7617H77.7089V48Z" fill="white"/>
<path d="M87.6793 48H92.0379V27.7617H87.6793V48Z" fill="white"/>
<path d="M94.0981 48H98.4567V39.6715H102.815V36.1735H98.4567V31.343H103.565V27.7617H94.0981V48Z" fill="white"/>
<path d="M104.719 48H114.602V44.4187H109.078V39.4216H113.464V35.9237H109.078V31.343H114.436V27.7617H104.719V48Z" fill="white"/>
</svg>
