<svg width="93" height="36" viewBox="0 0 93 36" fill="none" xmlns="http://www.w3.org/2000/svg">
<path d="M0.571289 15.1787H5.34531C6.83255 15.1787 7.97772 14.8386 8.78082 14.1585C9.5988 13.4783 10.0078 12.4095 10.0078 10.952C10.0078 9.96645 9.78471 9.15442 9.33854 8.5159C8.90724 7.8635 8.25286 7.47484 7.37539 7.34991V7.24581C8.20824 7.06536 8.80313 6.69057 9.16007 6.12146C9.517 5.53846 9.69547 4.80278 9.69547 3.9144C9.69547 2.70677 9.34597 1.75593 8.64697 1.06189C7.94797 0.353962 6.87716 0 5.43455 0H0.571289V15.1787ZM4.94376 2.45691C5.38993 2.45691 5.73199 2.56796 5.96995 2.79005C6.22278 2.99826 6.3492 3.34529 6.3492 3.83112V4.76807C6.3492 5.22614 6.23765 5.58704 6.01457 5.85078C5.80635 6.10064 5.47173 6.22556 5.01068 6.22556H4.05142V2.45691H4.94376ZM4.96607 8.59919C5.44198 8.59919 5.82123 8.71718 6.1038 8.95315C6.40125 9.17525 6.54997 9.57779 6.54997 10.1608V11.2227C6.54997 11.6669 6.43099 12.0278 6.19304 12.3054C5.96995 12.583 5.55352 12.7218 4.94376 12.7218H4.05142V8.59919H4.96607Z" fill="#244629"/>
<path d="M10.3762 15.1787H13.8787L14.2133 12.5552H17.1357L17.4926 15.1787H20.9951L18.1619 0H13.1871L10.3762 15.1787ZM14.5925 10.0983L15.2395 5.95489L15.5741 2.9358H15.7749L16.1318 5.95489L16.7565 10.0983H14.5925Z" fill="#244629"/>
<path d="M29.3911 2.68595V0H20.2669V2.68595H23.0778V15.1787H26.5802V2.68595H29.3911Z" fill="#244629"/>
<path d="M28.6875 15.1787H32.19L32.5246 12.5552H35.447L35.8039 15.1787H39.3064L36.4732 0H31.4984L28.6875 15.1787ZM32.9038 10.0983L33.5508 5.95489L33.8854 2.9358H34.0862L34.4431 5.95489L35.0677 10.0983H32.9038Z" fill="#244629"/>
<path d="M47.6416 15.2204H51.144V11.8265H52.9064L52.9287 9.03644H51.144V5.62175H48.4001L47.8423 9.03644H45.723V8.86987L49.5155 0H45.9684L41.7744 9.6819V11.8265H47.6416V15.2204Z" fill="#244629"/>
<path d="M0.571289 36H5.34531C6.83255 36 7.97772 35.6599 8.78082 34.9798C9.5988 34.2996 10.0078 33.2308 10.0078 31.7733C10.0078 30.7877 9.78471 29.9757 9.33854 29.3372C8.90724 28.6848 8.25286 28.2961 7.37539 28.1712V28.0671C8.20824 27.8866 8.80313 27.5119 9.16007 26.9427C9.517 26.3597 9.69547 25.6241 9.69547 24.7357C9.69547 23.5281 9.34597 22.5772 8.64697 21.8832C7.94797 21.1752 6.87716 20.8213 5.43455 20.8213H0.571289V36ZM4.94376 23.2782C5.38993 23.2782 5.73199 23.3892 5.96995 23.6113C6.22278 23.8195 6.3492 24.1666 6.3492 24.6524V25.5894C6.3492 26.0474 6.23765 26.4083 6.01457 26.6721C5.80635 26.9219 5.47173 27.0468 5.01068 27.0468H4.05142V23.2782H4.94376ZM4.96607 29.4205C5.44198 29.4205 5.82123 29.5385 6.1038 29.7744C6.40125 29.9965 6.54997 30.3991 6.54997 30.9821V32.044C6.54997 32.4881 6.43099 32.849 6.19304 33.1267C5.96995 33.4043 5.55352 33.5431 4.94376 33.5431H4.05142V29.4205H4.96607Z" fill="#244629"/>
<path d="M11.241 36H19.1829V33.3141H14.7435V29.5662H18.2682V26.9427H14.7435V23.5072H19.049V20.8213H11.241V36Z" fill="#244629"/>
<path d="M29.1732 23.5072V20.8213H20.0491V23.5072H22.8599V36H26.3624V23.5072H29.1732Z" fill="#244629"/>
<path d="M39.6905 23.5072V20.8213H30.5663V23.5072H33.3772V36H36.8796V23.5072H39.6905Z" fill="#244629"/>
<path d="M40.9628 36H48.9046V33.3141H44.4652V29.5662H47.99V26.9427H44.4652V23.5072H48.7708V20.8213H40.9628V36Z" fill="#244629"/>
<path d="M50.1947 36H53.6971V30.3366H54.3441L56.2403 36H59.9658L57.5788 29.6703C59.1255 29.1012 59.8989 27.7409 59.8989 25.5894C59.8989 23.9653 59.4824 22.7646 58.6496 21.9873C57.8316 21.2099 56.5675 20.8213 54.8571 20.8213H50.1947V36ZM54.8348 23.4656C55.8759 23.4656 56.3964 24 56.3964 25.0688V26.0682C56.3964 26.5818 56.27 26.9913 56.0172 27.2967C55.7792 27.6021 55.3851 27.7548 54.8348 27.7548H53.6971V23.4656H54.8348Z" fill="#244629"/>
<path d="M63.016 36H69.9762V33.3141H66.5184V20.8213H63.016V36Z" fill="#244629"/>
<path d="M71.0279 36H74.5303V20.8213H71.0279V36Z" fill="#244629"/>
<path d="M76.1858 36H79.6883V29.7536H83.1907V27.1301H79.6883V23.5072H83.793V20.8213H76.1858V36Z" fill="#244629"/>
<path d="M84.7206 36H92.6624V33.3141H88.223V29.5662H91.7478V26.9427H88.223V23.5072H92.5286V20.8213H84.7206V36Z" fill="#244629"/>
</svg>
